<?xml version="1.0" standalone="no"?>
<!DOCTYPE svg PUBLIC "-//W3C//DTD SVG 20010904//EN"
 "http://www.w3.org/TR/2001/REC-SVG-20010904/DTD/svg10.dtd">
<svg version="1.0" xmlns="http://www.w3.org/2000/svg"
 width="500.000000pt" height="500.000000pt" viewBox="0 0 500.000000 500.000000"
 preserveAspectRatio="xMidYMid meet">

<g transform="translate(0.000000,500.000000) scale(0.100000,-0.100000)"
fill="#000000" stroke="none">
<path d="M1978 3308 c-130 -291 -398 -899 -398 -903 0 -3 223 -5 495 -5 323 0
495 3 495 10 0 6 -104 10 -291 10 -229 0 -290 3 -286 13 2 6 50 113 105 237
55 124 144 324 197 445 53 121 101 224 105 229 6 6 12 2 16 -10 35 -98 268
-701 273 -707 4 -4 42 73 85 170 218 495 249 563 251 561 1 -2 84 -218 185
-480 124 -323 188 -478 197 -478 8 0 13 4 11 10 -1 5 -88 232 -193 505 l-190
495 -198 -2 -198 -3 -56 -127 c-31 -71 -59 -128 -63 -128 -4 0 -29 59 -56 130
l-49 130 -196 0 -196 0 -45 -102z m402 68 c0 -2 -22 -53 -49 -113 -26 -59
-121 -273 -211 -475 l-162 -368 -169 0 c-93 0 -169 3 -169 6 0 6 72 169 320
729 34 77 71 159 81 183 l18 42 171 0 c93 0 170 -2 170 -4z m607 -28 c-60
-144 -291 -658 -294 -654 -8 8 -153 391 -153 404 0 12 85 213 112 265 8 15 27
17 178 17 l170 0 -13 -32z"/>
<path d="M1255 2060 l0 -100 58 0 c48 0 57 3 57 18 0 13 -2 14 -9 4 -5 -8 -22
-12 -42 -10 l-34 3 0 93 c0 75 -3 92 -15 92 -12 0 -15 -18 -15 -100z"/>
<path d="M1476 2152 c-2 -4 -19 -43 -36 -87 -18 -44 -36 -86 -42 -92 -8 -10
-5 -13 11 -13 12 0 19 4 16 10 -3 6 -1 26 6 45 12 31 17 35 50 35 34 0 39 -3
49 -35 6 -19 9 -39 5 -45 -4 -6 4 -10 19 -10 l25 0 -18 33 c-10 17 -29 62 -42
100 -21 63 -31 77 -43 59z m23 -53 c6 -18 11 -34 11 -35 0 -2 -14 -4 -31 -4
-26 0 -30 3 -24 18 4 9 10 25 12 35 8 26 20 21 32 -14z"/>
<path d="M1727 2149 c-27 -16 -49 -74 -41 -107 17 -68 69 -96 137 -74 30 9 29
10 -13 5 -36 -4 -51 -1 -71 16 -32 25 -42 74 -24 118 16 37 46 49 101 38 24
-4 34 -3 29 4 -8 14 -94 14 -118 0z"/>
<path d="M1931 2075 c-18 -47 -39 -92 -47 -100 -14 -13 -12 -15 11 -15 15 0
24 4 20 10 -4 6 -1 26 5 45 10 31 15 35 46 35 31 0 37 -4 50 -36 13 -30 13
-38 2 -45 -8 -6 -2 -9 20 -9 28 0 31 2 20 14 -8 7 -27 52 -43 100 -17 47 -35
86 -41 86 -6 0 -26 -38 -43 -85z m57 18 c11 -32 10 -33 -20 -33 -23 0 -29 3
-24 16 3 9 9 27 12 41 8 28 17 21 32 -24z"/>
<path d="M2110 2146 c-23 -29 -7 -60 45 -87 52 -26 65 -49 45 -74 -18 -21 -77
-19 -89 3 -9 15 -10 15 -11 1 0 -33 86 -41 113 -11 34 38 14 79 -47 99 -35 11
-52 34 -43 57 7 19 57 22 75 4 9 -9 12 -8 12 5 0 13 -9 17 -44 17 -26 0 -48
-6 -56 -14z"/>
<path d="M2342 2149 c4 -8 13 -31 22 -51 l16 -38 -31 0 c-27 0 -30 3 -23 23
20 65 9 46 -40 -65 -24 -56 -24 -58 -5 -58 11 0 17 5 14 10 -4 6 -1 26 5 45
10 31 15 35 46 35 31 0 37 -4 50 -35 8 -20 12 -40 9 -45 -4 -6 6 -10 22 -10
17 0 23 3 16 8 -7 4 -27 48 -45 97 -18 48 -39 90 -47 93 -9 3 -12 0 -9 -9z"/>
<path d="M2572 2074 c-1 -48 -7 -93 -13 -101 -9 -10 -6 -13 16 -13 21 0 25 3
17 13 -6 7 -7 40 -3 82 8 78 9 77 50 -30 10 -27 23 -50 27 -50 5 0 22 33 38
73 35 87 50 79 44 -24 -3 -63 -2 -64 22 -64 16 0 21 3 13 8 -9 5 -14 40 -15
100 -4 121 -21 124 -63 12 -16 -44 -33 -76 -37 -72 -4 4 -18 39 -31 77 -17 51
-29 71 -43 73 -17 2 -19 -5 -22 -84z"/>
<path d="M2845 2060 l0 -100 25 0 c17 0 21 3 12 9 -10 6 -13 32 -10 100 2 76
0 91 -12 91 -12 0 -15 -18 -15 -100z"/>
<path d="M3036 2129 c-57 -68 -15 -169 71 -169 21 0 45 5 53 10 10 7 0 8 -32
4 -41 -6 -49 -3 -72 19 -34 34 -36 102 -6 135 22 24 68 29 101 12 15 -8 19 -7
19 5 0 12 -12 15 -54 15 -48 0 -57 -3 -80 -31z"/>
<path d="M3280 2139 c-7 -11 -9 -23 -6 -27 3 -3 6 0 6 6 0 24 18 11 29 -19 6
-18 11 -34 11 -35 0 -2 -14 -4 -31 -4 -26 0 -29 3 -24 20 3 11 4 20 1 20 -2 0
-14 -26 -26 -57 -11 -32 -28 -64 -37 -70 -15 -11 -13 -13 11 -13 16 0 25 4 21
10 -3 6 -1 26 6 45 12 31 17 35 49 35 32 0 37 -4 49 -35 7 -19 9 -39 6 -45 -4
-6 5 -10 19 -10 l25 0 -18 33 c-10 17 -29 62 -42 100 -12 37 -26 67 -30 67 -5
0 -13 -9 -19 -21z"/>
<path d="M3428 2136 c-16 -36 -5 -53 49 -79 26 -12 49 -30 51 -40 9 -46 -64
-66 -92 -25 -16 22 -16 22 -16 1 0 -11 7 -24 16 -27 31 -12 81 -6 97 12 34 38
14 79 -47 99 -60 19 -62 73 -3 73 18 0 38 -5 45 -12 9 -9 12 -8 12 5 0 14 -10
17 -50 17 -44 0 -52 -3 -62 -24z"/>
<path d="M3666 2152 c-2 -4 -19 -43 -36 -87 -18 -44 -36 -86 -42 -92 -8 -10
-5 -13 11 -13 12 0 20 4 17 8 -3 5 0 25 6 45 10 34 14 37 49 37 34 0 39 -3 49
-35 6 -19 9 -39 5 -45 -4 -6 5 -10 21 -10 25 0 26 1 12 18 -8 9 -28 54 -43
100 -27 77 -37 93 -49 74z m23 -53 c6 -18 11 -34 11 -35 0 -2 -14 -4 -31 -4
-26 0 -30 3 -24 18 4 9 10 25 12 35 8 26 20 21 32 -14z"/>
<path d="M2065 1700 l0 -60 35 1 c30 2 31 3 8 6 -26 4 -28 8 -28 53 0 45 2 49
28 53 23 3 22 4 -8 6 l-35 1 0 -60z"/>
<path d="M2197 1753 c-16 -16 -5 -41 23 -53 39 -16 44 -25 24 -44 -8 -9 -11
-16 -5 -16 6 0 15 8 20 19 11 20 -6 41 -41 54 -10 4 -18 14 -18 23 0 12 7 15
29 12 17 -2 28 -1 25 4 -6 10 -48 11 -57 1z"/>
<path d="M2328 1753 c20 -4 22 -10 22 -59 0 -30 3 -54 8 -54 4 0 5 24 4 54 -4
50 -2 55 20 59 12 2 1 4 -27 4 -27 0 -40 -2 -27 -4z"/>
<path d="M2498 1755 c-4 -4 -1 -16 5 -26 10 -16 9 -21 -1 -28 -10 -6 -9 -10 7
-14 24 -6 24 -4 7 41 -6 18 -14 30 -18 27z"/>
<path d="M2618 1753 c22 -4 24 -9 20 -59 -1 -30 0 -54 5 -54 4 0 7 24 7 54 0
49 2 55 23 59 12 2 0 4 -28 4 -27 0 -39 -2 -27 -4z"/>
<path d="M2750 1700 l0 -60 38 2 c36 1 36 1 5 5 -27 4 -33 9 -33 28 0 17 7 25
23 28 l22 4 -22 2 c-38 2 -30 39 10 44 31 4 31 4 -5 5 l-38 2 0 -60z"/>
<path d="M2879 1744 c-14 -17 -4 -30 47 -60 17 -10 17 -13 4 -30 -13 -18 -13
-18 3 -3 23 20 13 45 -24 58 -31 11 -36 20 -17 39 7 7 9 12 6 12 -3 0 -12 -7
-19 -16z"/>
<path d="M2910 1756 c0 -2 7 -6 15 -10 8 -3 15 -1 15 4 0 6 -7 10 -15 10 -8 0
-15 -2 -15 -4z"/>
<path d="M2098 1703 c7 -3 16 -2 19 1 4 3 -2 6 -13 5 -11 0 -14 -3 -6 -6z"/>
<path d="M2530 1655 c0 -8 4 -15 10 -15 5 0 7 7 4 15 -4 8 -8 15 -10 15 -2 0
-4 -7 -4 -15z"/>
<path d="M2450 1650 c0 -5 5 -10 11 -10 5 0 7 5 4 10 -3 6 -8 10 -11 10 -2 0
-4 -4 -4 -10z"/>
<path d="M2877 1649 c7 -7 15 -10 18 -7 3 3 -2 9 -12 12 -14 6 -15 5 -6 -5z"/>
</g>
</svg>
